<?xml version="1.0" encoding="UTF-8" standalone="no"?>
<!-- Created with Inkscape (http://www.inkscape.org/) -->

<svg
   xmlns:dc="http://purl.org/dc/elements/1.1/"
   xmlns:cc="http://creativecommons.org/ns#"
   xmlns:rdf="http://www.w3.org/1999/02/22-rdf-syntax-ns#"
   xmlns:svg="http://www.w3.org/2000/svg"
   xmlns="http://www.w3.org/2000/svg"
   xmlns:sodipodi="http://sodipodi.sourceforge.net/DTD/sodipodi-0.dtd"
   xmlns:inkscape="http://www.inkscape.org/namespaces/inkscape"
   width="40"
   height="40"
   viewBox="0 0 10.583333 10.583334"
   version="1.1"
   id="svg2642"
   inkscape:version="0.92.1 r15371"
   sodipodi:docname="NormalEyes.svg">
  <defs
     id="defs2636" />
  <sodipodi:namedview
     id="base"
     pagecolor="#ffffff"
     bordercolor="#666666"
     borderopacity="1.0"
     inkscape:pageopacity="0.0"
     inkscape:pageshadow="2"
     inkscape:zoom="7.9195959"
     inkscape:cx="10.024362"
     inkscape:cy="9.6346041"
     inkscape:document-units="mm"
     inkscape:current-layer="layer1"
     showgrid="false"
     units="px"
     inkscape:window-width="1920"
     inkscape:window-height="1051"
     inkscape:window-x="-9"
     inkscape:window-y="-9"
     inkscape:window-maximized="1" />
  <metadata
     id="metadata2639">
    <rdf:RDF>
      <cc:Work
         rdf:about="">
        <dc:format>image/svg+xml</dc:format>
        <dc:type
           rdf:resource="http://purl.org/dc/dcmitype/StillImage" />
        <dc:title></dc:title>
      </cc:Work>
    </rdf:RDF>
  </metadata>
  <g
     inkscape:label="Layer 1"
     inkscape:groupmode="layer"
     id="layer1"
     transform="translate(0,-286.41663)">
    <path
       id="path2661"
       style="fill:#ffffff;fill-opacity:1;fill-rule:evenodd;stroke:#000000;stroke-width:0.40000001;stroke-miterlimit:4;stroke-dasharray:none;stroke-opacity:1"
       d="m 8.0180861,292.35614 a 0.25056517,0.26726952 0 0 1 -0.2505652,0.26727 0.25056517,0.26726952 0 0 1 -0.2505652,-0.26727 0.25056517,0.26726952 0 0 1 0.2505652,-0.26727 0.25056517,0.26726952 0 0 1 0.2505652,0.26727 z m 1.1525997,-1.00226 a 1.787365,2.4722431 0 0 1 -1.787365,2.47224 1.787365,2.4722431 0 0 1 -1.787365,-2.47224 1.787365,2.4722431 0 0 1 1.787365,-2.47224 1.787365,2.4722431 0 0 1 1.787365,2.47224 z" />
    <path
       id="path2663"
       style="fill:#ffffff;fill-opacity:1;stroke:#000000;stroke-width:0.40000001;stroke-miterlimit:4;stroke-dasharray:none;stroke-opacity:1;fill-rule:evenodd"
       d="m 3.8754081,293.84283 a 0.46772167,0.38419995 0 0 1 -0.4677216,0.3842 0.46772167,0.38419995 0 0 1 -0.4677217,-0.3842 0.46772167,0.38419995 0 0 1 0.4677217,-0.3842 0.46772167,0.38419995 0 0 1 0.4677216,0.3842 z m 1.3363475,-1.2528 a 1.7873648,2.4722431 0 0 1 -1.7873648,2.47224 1.7873648,2.4722431 0 0 1 -1.7873648,-2.47224 1.7873648,2.4722431 0 0 1 1.7873648,-2.47225 1.7873648,2.4722431 0 0 1 1.7873648,2.47225 z" />
  </g>
</svg>
