<?xml version="1.0" encoding="UTF-8" standalone="no"?>
<!-- Created with Inkscape (http://www.inkscape.org/) -->

<svg
   xmlns:dc="http://purl.org/dc/elements/1.1/"
   xmlns:cc="http://creativecommons.org/ns#"
   xmlns:rdf="http://www.w3.org/1999/02/22-rdf-syntax-ns#"
   xmlns:svg="http://www.w3.org/2000/svg"
   xmlns="http://www.w3.org/2000/svg"
   xmlns:sodipodi="http://sodipodi.sourceforge.net/DTD/sodipodi-0.dtd"
   xmlns:inkscape="http://www.inkscape.org/namespaces/inkscape"
   width="70"
   height="70"
   viewBox="0 0 18.520833 18.520834"
   version="1.1"
   id="svg2039"
   inkscape:version="0.92.1 r15371"
   sodipodi:docname="FlayerHead.svg"
   inkscape:export-filename="C:\Users\nubbe\OneDrive\Documents\dnawesome\DNAwesome\Assets\Parts\Heads\RobotSnout.png"
   inkscape:export-xdpi="300"
   inkscape:export-ydpi="300">
  <defs
     id="defs2033">
    <inkscape:path-effect
       effect="bspline"
       id="path-effect3504"
       is_visible="true"
       weight="33.333333"
       steps="2"
       helper_size="0"
       apply_no_weight="true"
       apply_with_weight="true"
       only_selected="false" />
    <inkscape:path-effect
       effect="spiro"
       id="path-effect2079"
       is_visible="true" />
    <inkscape:path-effect
       effect="spiro"
       id="path-effect2075"
       is_visible="true" />
    <inkscape:path-effect
       effect="spiro"
       id="path-effect2071"
       is_visible="true" />
    <inkscape:path-effect
       effect="spiro"
       id="path-effect2067"
       is_visible="true" />
    <inkscape:path-effect
       effect="spiro"
       id="path-effect2063"
       is_visible="true" />
    <inkscape:path-effect
       effect="spiro"
       id="path-effect2059"
       is_visible="true" />
    <inkscape:path-effect
       effect="spiro"
       id="path-effect2055"
       is_visible="true" />
    <inkscape:path-effect
       effect="spiro"
       id="path-effect2051"
       is_visible="true" />
    <inkscape:path-effect
       effect="spiro"
       id="path-effect2047"
       is_visible="true" />
    <inkscape:path-effect
       effect="spiro"
       id="path-effect2043"
       is_visible="true" />
  </defs>
  <sodipodi:namedview
     id="base"
     pagecolor="#ffffff"
     bordercolor="#666666"
     borderopacity="1.0"
     inkscape:pageopacity="0.0"
     inkscape:pageshadow="2"
     inkscape:zoom="5.6"
     inkscape:cx="19.201981"
     inkscape:cy="34.968112"
     inkscape:document-units="mm"
     inkscape:current-layer="layer1"
     showgrid="false"
     units="px"
     inkscape:window-width="1920"
     inkscape:window-height="1051"
     inkscape:window-x="-9"
     inkscape:window-y="-9"
     inkscape:window-maximized="1" />
  <metadata
     id="metadata2036">
    <rdf:RDF>
      <cc:Work
         rdf:about="">
        <dc:format>image/svg+xml</dc:format>
        <dc:type
           rdf:resource="http://purl.org/dc/dcmitype/StillImage" />
        <dc:title></dc:title>
      </cc:Work>
    </rdf:RDF>
  </metadata>
  <g
     inkscape:label="Layer 1"
     inkscape:groupmode="layer"
     id="layer1"
     transform="translate(0,-278.47915)">
    <path
       style="fill:#ffffff;stroke:#000000;stroke-width:0.32592678px;stroke-linecap:butt;stroke-linejoin:miter;stroke-opacity:1;fill-opacity:1"
       d="m 3.571608,290.3314 c -0.7090355,-0.84537 -2.1270762,-2.53607 -2.5149366,-4.24665 -0.38786038,-1.71057 0.2664715,-3.4734 1.1375637,-4.67162 0.8710921,-1.19821 1.9652521,-1.84863 2.8969766,-2.19175 0.9317245,-0.34313 1.7422774,-0.38126 3.2712197,-0.37197 1.5289422,0.009 3.7988456,0.0651 5.3483586,0.48304 1.549512,0.41798 2.380197,1.19842 3.089182,2.34096 0.708985,1.14254 1.29646,2.64745 0.840746,4.3103 -0.455715,1.66285 -1.954908,3.48375 -3.453989,5.30452 -0.193195,0.29752 -0.386143,0.59466 -0.207189,0.85388 0.178955,0.25922 0.730466,0.47983 0.72253,0.771 -0.0079,0.29117 -0.574976,0.65344 -0.7326,1.00785 -0.157625,0.3544 0.09464,0.70126 0.118251,1.00805 0.02361,0.30679 -0.18876,0.58451 -0.177203,0.89461 0.01156,0.31009 0.232091,0.67239 0.452577,1.03462 -0.425223,-0.17324 -0.844431,-0.34403 -0.94183,-0.60526 -0.0974,-0.26124 0.138833,-0.60771 0.07573,-0.96979 -0.0631,-0.36208 -0.432946,-0.74801 -0.531448,-1.16154 -0.0985,-0.41352 0.05895,-0.87014 0.01952,-1.35044 -0.03944,-0.48029 -0.275619,-0.98415 -0.511854,-1.48812 0.01575,0 0.03179,0 -0.05482,0.0393 -0.08661,0.0393 -0.275634,0.11807 -0.275793,0.30708 -1.58e-4,0.18901 0.189013,0.48853 0.212634,0.80324 0.02362,0.31471 -0.118156,0.64553 -0.08673,1.0708 0.03142,0.42527 0.236363,0.94551 0.259989,1.36251 0.02363,0.417 -0.133948,0.73215 -0.165508,1.03924 -0.03156,0.3071 0.06299,0.6065 0.15748,0.90573 -0.393725,-0.31498 -0.786692,-0.62936 -0.920823,-0.86604 -0.13413,-0.23669 -0.0082,-0.39412 -0.01618,-0.63818 -0.008,-0.24405 -0.149649,-0.57458 -0.110224,-1 0.03942,-0.42541 0.259895,-0.94509 0.188947,-1.44895 -0.07095,-0.50385 -0.43314,-0.99202 -0.795367,-1.48024 -0.04725,0 -0.09424,0 -0.03139,0.11023 0.06286,0.11022 0.236255,0.33091 0.204803,0.59841 -0.03145,0.2675 -0.267784,0.58261 -0.322995,0.93697 -0.05521,0.35435 0.07093,0.74855 0.04736,1.0711 -0.02357,0.32254 -0.196881,0.57463 -0.220599,0.90537 -0.02372,0.33075 0.106833,0.75504 0.05745,1.08618 -0.04938,0.33114 -0.270104,0.59916 -0.49059,0.86689 -0.141741,-0.12599 -0.2833202,-0.25184 -0.2912125,-0.47256 -0.00789,-0.22072 0.1202323,-0.54103 0.1033264,-0.85324 -0.016906,-0.31221 -0.1742818,-0.62696 -0.1978957,-1.00515 -0.023614,-0.3782 0.086611,-0.8191 -0.015814,-1.36237 -0.1024244,-0.54328 -0.4173529,-1.18888 -0.7323331,-1.83459 -0.047247,0.0788 -0.094349,0.15725 -0.086573,0.25969 0.00778,0.10244 0.0708,0.22849 0.1574068,0.48041 0.086607,0.25192 0.1969476,0.63023 0.094694,0.96075 -0.102254,0.33052 -0.4173874,0.61415 -0.5434565,0.98419 -0.1260691,0.37005 -0.063032,0.82707 -0.2282717,1.25999 -0.16524,0.43293 -0.5592255,0.84267 -0.9529507,1.25215 0.015749,-0.0157 0.03963,-0.0396 0.1064871,-0.23254 0.066857,-0.19295 0.1927904,-0.57075 0.200616,-0.92511 0.00783,-0.35436 -0.1023474,-0.68488 -0.070802,-1.09454 0.031545,-0.40966 0.2047355,-0.89774 0.1968025,-1.41745 -0.00793,-0.5197 -0.1968681,-1.07076 -0.3858562,-1.62198 -0.1574901,0.25198 -0.3148538,0.50376 -0.3306924,0.82664 -0.015839,0.32287 0.1102856,0.71701 0.039515,1.03174 -0.070771,0.31474 -0.338638,0.55109 -0.4647065,0.92113 -0.1260686,0.37004 -0.1103105,0.8743 -0.3149219,1.36236 -0.2046113,0.48806 -0.6300872,0.96081 -1.0553104,1.43328 0,-0.063 0,-0.12619 0.070941,-0.31524 0.070941,-0.18905 0.2126235,-0.50389 0.2204282,-0.81097 0.0078,-0.30708 -0.118099,-0.6061 -0.08655,-0.98428 0.031549,-0.37817 0.2204734,-0.83474 0.259793,-1.38598 0.03932,-0.55124 -0.070887,-1.19673 -0.1811303,-1.84244 0.015749,-0.0315 0.031672,-0.0633 -0.1494398,0.25165 -0.1811123,0.315 -0.5592155,0.97668 -0.6695107,1.51212 -0.1102952,0.53544 0.047309,0.94521 0.047336,1.3702 2.67e-5,0.42499 -0.157566,0.86625 -0.4645243,1.24413 -0.3069583,0.37789 -0.763985,0.69308 -1.2207062,1.00806 -0.015749,-0.33073 -0.031499,-0.66148 0.1655126,-0.98444 0.1970113,-0.32296 0.6064659,-0.63792 0.6220685,-1.00793 0.015603,-0.37 -0.3700557,-0.80387 -0.3771531,-1.43951 -0.0071,-0.63563 0.3488434,-1.49001 0.5267541,-1.91705 0.1779108,-0.42704 0.1779079,-0.42709 -0.5311276,-1.27246 z"
       id="path3502"
       inkscape:connector-curvature="0"
       inkscape:path-effect="#path-effect3504"
       inkscape:original-d="m 4.2806435,291.17677 c -1.4177844,-1.69098 -2.8357576,-3.38174 -4.25414703,-5.07214 0.64857396,-1.72813 1.29684233,-3.49321 1.94475293,-5.23934 1.0940292,-0.65045 2.1881876,-1.30087 3.2817707,-1.95083 0.7698603,-0.0374 1.5804519,-0.0747 2.3701677,-0.11148 2.2681937,0.0554 4.5380982,0.11112 6.8066352,0.16721 0.830792,0.77991 1.661483,1.56034 2.491715,2.34099 0.58782,1.50461 1.175295,3.00952 1.762433,4.51475 -1.498918,1.82067 -4.497242,5.4623 -4.497242,5.4623 0,0 -0.386078,0.5947 -0.579586,0.89256 0.55148,0.22022 1.102994,0.44082 1.653646,0.66146 -0.5667,0.36196 -1.133742,0.72423 -1.700893,1.08668 0.252249,0.34621 0.50451,0.69307 0.755952,1.03943 -0.204472,0.26747 -0.409252,0.551 -0.614211,0.8032 0.220751,0.36196 0.661458,1.08668 0.661458,1.08668 0,0 -0.849809,-0.33083 -1.275669,-0.51972 0.236499,-0.34674 0.472731,-0.69321 0.708705,-1.03943 -0.361963,-0.37824 -0.723938,-0.77171 -1.086682,-1.13393 0.157755,-0.45698 0.315209,-0.9136 0.472471,-1.37016 -0.235971,-0.50423 -0.708706,-1.51191 -0.708706,-1.51191 0,0 0.03179,0.0155 0.04725,0 -0.188723,0.0785 -0.377755,0.15725 -0.566964,0.23624 0.189253,0.29897 0.378423,0.59849 0.566964,0.89769 -0.141476,0.33047 -0.283255,0.66128 -0.425223,0.99219 0.205002,0.51945 0.409945,1.03969 0.614211,1.55915 -0.157225,0.31472 -0.314802,0.62987 -0.47247,0.94494 0.09476,0.29897 0.283482,0.8977 0.283482,0.8977 0,0 -0.78646,-0.62965 -1.181175,-0.94495 0.126256,-0.15775 0.2522,-0.31518 0.377976,-0.47247 -0.141477,-0.33099 -0.283131,-0.66152 -0.425223,-0.99218 0.22075,-0.51998 0.441217,-1.03966 0.661458,-1.55915 -0.361963,-0.48849 -1.086682,-1.46466 -1.086682,-1.46466 0,0 -0.09424,-2.7e-4 -0.141741,0 0.173504,0.22022 0.346906,0.44091 0.519718,0.66146 -0.235971,0.31471 -0.472304,0.62982 -0.708706,0.94494 0.126257,0.39346 0.252401,0.78766 0.377977,1.18117 -0.172975,0.25172 -0.346285,0.50381 -0.519718,0.75595 0.126257,0.40921 0.252384,0.83486 0.377976,1.22843 -0.220221,0.26747 -0.661458,0.8032 -0.661458,0.8032 0,0 -0.2830737,-0.25212 -0.4252231,-0.37798 0.1262566,-0.31524 0.2679607,-0.63012 0.3779761,-0.94494 -0.1572254,-0.31525 -0.3146043,-0.63 -0.4724701,-0.94494 0.1105076,-0.44124 0.220732,-0.88214 0.3307291,-1.32292 -0.3147156,-0.64597 -0.9449405,-1.93713 -0.9449405,-1.93713 0,0 -0.094269,0.1573 -0.141741,0.23624 0.063261,0.12573 0.1262854,0.25178 0.1889881,0.37798 0.1105076,0.37771 0.2208479,0.75602 0.3307291,1.13392 -0.3147155,0.28322 -0.6298501,0.56684 -0.9449404,0.85045 0.063261,0.45646 0.1262981,0.91348 0.1889881,1.37016 -0.3934607,0.40921 -1.1811756,1.22843 -1.1811756,1.22843 0,0 0.047512,-0.0317 0.047247,-0.0472 0.1262566,-0.37824 0.2521882,-0.75604 0.3779762,-1.13393 -0.1099785,-0.33099 -0.2201497,-0.66151 -0.3307292,-0.99219 0.1735037,-0.48848 0.3466939,-0.97656 0.5197173,-1.46465 -0.1887235,-0.55148 -0.5669643,-1.65365 -0.5669643,-1.65365 0,0 -0.3147809,0.50381 -0.4724703,0.75595 0.1262567,0.39346 0.2523805,0.7876 0.3779762,1.18118 -0.2674685,0.23597 -0.5353377,0.47232 -0.8031994,0.7087 0.016014,0.50371 0.031772,1.00797 0.047247,1.51191 -0.4249586,0.4722 -1.2756696,1.41741 -1.2756696,1.41741 0,0 2.646e-4,-0.12619 0,-0.18899 0.1420057,-0.31524 0.2836851,-0.63009 0.4252232,-0.94494 -0.1257275,-0.2995 -0.2516314,-0.59852 -0.3779762,-0.89769 0.1892527,-0.45699 0.3781784,-0.91356 0.5669643,-1.37017 -0.1099785,-0.64597 -0.3307292,-1.93712 -0.3307292,-1.93712 0,0 0.03177,-0.0633 0.047247,-0.0945 -0.3777116,0.6612 -0.7558188,1.32288 -1.1339286,1.98438 0.1577547,0.40921 0.3153585,0.81898 0.4724702,1.22842 -0.1572255,0.44071 -0.31482,0.88197 -0.4724702,1.32292 -0.4564567,0.31471 -1.3701637,0.94494 -1.3701637,0.94494 0,0 -0.031222,-0.66149 -0.047247,-0.99219 0.4097388,-0.31525 0.8191971,-0.63021 1.2284226,-0.94494 -0.3777116,-0.42549 -0.7555465,-0.86631 -1.1339286,-1.27567 0.3562132,-0.85466 0.7121566,-1.70903 1.0678459,-2.56317 z"
       inkscape:export-xdpi="300"
       inkscape:export-ydpi="300" />
  </g>
</svg>
