<?xml version="1.0" encoding="UTF-8" standalone="no"?>
<!-- Created with Inkscape (http://www.inkscape.org/) -->

<svg
   xmlns:dc="http://purl.org/dc/elements/1.1/"
   xmlns:cc="http://creativecommons.org/ns#"
   xmlns:rdf="http://www.w3.org/1999/02/22-rdf-syntax-ns#"
   xmlns:svg="http://www.w3.org/2000/svg"
   xmlns="http://www.w3.org/2000/svg"
   xmlns:sodipodi="http://sodipodi.sourceforge.net/DTD/sodipodi-0.dtd"
   xmlns:inkscape="http://www.inkscape.org/namespaces/inkscape"
   width="100"
   height="200"
   viewBox="0 0 26.458333 52.916668"
   version="1.1"
   id="svg841"
   inkscape:version="0.92.1 r15371"
   sodipodi:docname="PincerArms.svg">
  <defs
     id="defs835">
    <inkscape:path-effect
       effect="spiro"
       id="path-effect849"
       is_visible="true" />
    <inkscape:path-effect
       effect="spiro"
       id="path-effect845"
       is_visible="true" />
  </defs>
  <sodipodi:namedview
     id="base"
     pagecolor="#ffffff"
     bordercolor="#666666"
     borderopacity="1.0"
     inkscape:pageopacity="0.0"
     inkscape:pageshadow="2"
     inkscape:zoom="1.4"
     inkscape:cx="-27.349878"
     inkscape:cy="144.26064"
     inkscape:document-units="mm"
     inkscape:current-layer="layer1"
     showgrid="false"
     units="px"
     inkscape:window-width="1920"
     inkscape:window-height="1051"
     inkscape:window-x="-9"
     inkscape:window-y="-9"
     inkscape:window-maximized="1" />
  <metadata
     id="metadata838">
    <rdf:RDF>
      <cc:Work
         rdf:about="">
        <dc:format>image/svg+xml</dc:format>
        <dc:type
           rdf:resource="http://purl.org/dc/dcmitype/StillImage" />
        <dc:title></dc:title>
      </cc:Work>
    </rdf:RDF>
  </metadata>
  <g
     inkscape:label="Layer 1"
     inkscape:groupmode="layer"
     id="layer1"
     transform="translate(0,-244.08332)">
    <path
       id="path847"
       style="fill:#ffffff;stroke:#000000;stroke-width:1.318;stroke-linecap:butt;stroke-linejoin:miter;stroke-opacity:1;fill-opacity:1;stroke-miterlimit:4;stroke-dasharray:none"
       inkscape:path-effect="#path-effect849"
       inkscape:original-d="m 20.393823,275.78982 c 2.00441,1.11647 4.008538,2.23331 6.012386,3.35052 2.003848,1.1172 1.336367,-1.03129 2.004128,-1.54639 0.667763,-0.5151 -1.803714,-11.08248 -1.803714,-11.08248 0,0 2.471477,-2.74878 -0.801652,-1.80413 -3.27313,0.94465 -9.82023,2.83505 -9.82023,2.83505 0,0 1.402609,-1.63194 -0.400825,-1.80412 -1.803435,-0.17218 -5.411147,-0.51546 -5.411147,-0.51546 0,0 1.603022,-0.5151 1.40289,-4.12371 -0.200132,-3.60862 -0.601239,-10.82475 -0.601239,-10.82475 0,0 0.868176,-1.63194 -0.200412,1.54639 -1.0685883,3.17834 -3.2066057,9.53609 -3.2066057,9.53609 0,0 -2.2716266,1.1172 -2.2045413,-1.80413 0.067085,-2.92132 0.2004126,-8.76289 0.2004126,-8.76289 m 0,0 c -1.0685876,3.35016 -2.1374561,6.70067 -3.2066052,10.05155 -1.0691491,3.35088 0.8019319,2.0615 1.2024769,3.09279 0.4005453,1.03128 1.4028899,1.54639 1.4028899,1.54639 0,0 -2.2710649,4.29517 -3.4070183,6.4433 -1.13595316,2.14812 2.8060604,3.09242 4.2086697,4.63918 1.4026093,1.54675 4.6094954,-1.03093 4.6094954,-1.03093 0,0 4.67658,2.06149 7.014449,3.09278 2.337869,1.03128 2.00441,-1.8904 3.006192,-2.83505"
       d="m 20.393823,275.78982 c 0.197909,1.30831 1.028408,2.50609 2.18425,3.15021 1.155842,0.64411 2.611382,0.72028 3.828136,0.20031 0.783017,-0.33461 1.455112,-0.8955 2.004128,-1.54639 1.370064,-1.6243 1.987652,-3.8586 1.6463,-5.95596 -0.341353,-2.09736 -1.635582,-4.02051 -3.450014,-5.12652 -0.153351,-0.6438 -0.426633,-1.25883 -0.801652,-1.80413 -0.635584,-0.92418 -1.567281,-1.64133 -2.623343,-2.01925 -1.056061,-0.37791 -2.231224,-0.4147 -3.308859,-0.1036 -1.077634,0.31111 -2.05237,0.96857 -2.744524,1.85118 -0.692154,0.88262 -1.098277,1.98599 -1.143504,3.10672 0.04127,-0.62308 -0.0996,-1.25714 -0.400825,-1.80412 -0.514332,-0.93396 -1.507942,-1.58663 -2.569352,-1.68774 -1.06141,-0.10111 -2.160378,0.35223 -2.841795,1.17228 0.615688,-1.31811 1.087029,-2.70359 1.40289,-4.12371 0.794536,-3.57225 0.584016,-7.36246 -0.601239,-10.82475 -0.05332,0.51709 -0.120155,1.03279 -0.200412,1.54639 -0.520246,3.32928 -1.6095952,6.56888 -3.2066057,9.53609 -0.850451,-0.43795 -1.6070284,-1.05711 -2.2045413,-1.80413 -0.9909168,-1.23886 -1.5292685,-2.83189 -1.4929958,-4.41788 0.036273,-1.586 0.6468902,-3.15274 1.6934084,-4.34501 m 0,0 c -2.646512,2.53733 -3.8948357,6.45038 -3.2066052,10.05155 0.2089946,1.09357 0.5888224,2.16382 1.2024769,3.09279 0.3851045,0.58299 0.8600445,1.10651 1.4028899,1.54639 -1.1832516,0.54949 -2.1785584,1.49469 -2.7883939,2.648 -0.6098355,1.15331 -0.8306512,2.50803 -0.6186244,3.7953 0.1797572,1.09136 0.6686933,2.13255 1.4073555,2.9558 0.7386621,0.82325 1.7261459,1.4238 2.8013142,1.68338 1.5850679,0.38269 3.3384708,-0.009 4.6094954,-1.03093 0.517569,1.3199 1.572675,2.41981 2.869926,2.99179 1.297251,0.57198 2.820953,0.6091 4.144523,0.10099 1.318994,-0.50636 2.423478,-1.54796 3.006192,-2.83505"
       inkscape:connector-curvature="0" />
  </g>
</svg>
