<?xml version="1.0" encoding="UTF-8" standalone="no"?>
<!-- Created with Inkscape (http://www.inkscape.org/) -->

<svg
   xmlns:dc="http://purl.org/dc/elements/1.1/"
   xmlns:cc="http://creativecommons.org/ns#"
   xmlns:rdf="http://www.w3.org/1999/02/22-rdf-syntax-ns#"
   xmlns:svg="http://www.w3.org/2000/svg"
   xmlns="http://www.w3.org/2000/svg"
   xmlns:sodipodi="http://sodipodi.sourceforge.net/DTD/sodipodi-0.dtd"
   xmlns:inkscape="http://www.inkscape.org/namespaces/inkscape"
   width="200"
   height="100"
   viewBox="0 0 52.916666 26.458334"
   version="1.1"
   id="svg833"
   sodipodi:docname="RaptorLegs.svg"
   inkscape:export-filename="C:\Users\nubbe\OneDrive\Documents\dnawesome\DNAwesome\Assets\Parts\Legs\RaptorLegs.png"
   inkscape:export-xdpi="300"
   inkscape:export-ydpi="300"
   inkscape:version="0.92.1 r15371">
  <defs
     id="defs827">
    <inkscape:path-effect
       effect="spiro"
       id="path-effect1991"
       is_visible="true" />
    <inkscape:path-effect
       effect="spiro"
       id="path-effect1419"
       is_visible="true" />
    <inkscape:path-effect
       effect="spiro"
       id="path-effect1398"
       is_visible="true" />
    <inkscape:path-effect
       effect="spiro"
       id="path-effect1991-9"
       is_visible="true" />
    <inkscape:path-effect
       effect="spiro"
       id="path-effect1991-8"
       is_visible="true" />
  </defs>
  <sodipodi:namedview
     id="base"
     pagecolor="#ffffff"
     bordercolor="#666666"
     borderopacity="1.0"
     inkscape:pageopacity="0.0"
     inkscape:pageshadow="2"
     inkscape:zoom="3.959798"
     inkscape:cx="-2.9547247"
     inkscape:cy="60.965703"
     inkscape:document-units="mm"
     inkscape:current-layer="layer1"
     showgrid="false"
     units="px"
     inkscape:window-width="1920"
     inkscape:window-height="1051"
     inkscape:window-x="-9"
     inkscape:window-y="-9"
     inkscape:window-maximized="1" />
  <metadata
     id="metadata830">
    <rdf:RDF>
      <cc:Work
         rdf:about="">
        <dc:format>image/svg+xml</dc:format>
        <dc:type
           rdf:resource="http://purl.org/dc/dcmitype/StillImage" />
        <dc:title></dc:title>
      </cc:Work>
    </rdf:RDF>
  </metadata>
  <g
     inkscape:label="Layer 1"
     inkscape:groupmode="layer"
     id="layer1"
     transform="translate(0,-270.54165)">
    <g
       id="g1415" />
    <path
       style="fill:#000000;stroke:#000000;stroke-width:0.26458332px;stroke-linecap:butt;stroke-linejoin:miter;stroke-opacity:1;fill-opacity:1"
       inkscape:path-effect="#path-effect1419"
       inkscape:original-d="m 12.027129,291.78823 c -0.22299,2.6e-4 0.445714,-2.6e-4 0.668174,0"
       d="m 12.027129,291.78823 h 0.668174"
       id="path1969" />
    <g
       id="g1973"
       style="stroke-width:0.4;stroke-miterlimit:4;stroke-dasharray:none;fill:#ffffff;fill-opacity:1;stroke:#000000;stroke-opacity:1" />
    <path
       id="path1989"
       style="fill:#ffffff;fill-opacity:1;stroke:#070000;stroke-width:0.76499999;stroke-linecap:butt;stroke-linejoin:miter;stroke-miterlimit:4;stroke-dasharray:none;stroke-opacity:1"
       inkscape:path-effect="#path-effect1991"
       inkscape:original-d="m 35.947751,269.80529 c -14.454562,1.33609 3.391932,10.69876 1.870887,15.76892 l -0.400904,1.33635 m 0,0 c -1.395681,0.25334 -2.657934,1.16216 -3.340869,2.40542 -0.221158,0.40261 -0.386282,0.84003 -0.668174,1.20272 -0.116277,0.1496 -0.251298,0.28462 -0.400904,0.4009 -0.763158,0.26055 -1.44718,0.74823 -1.942266,1.38477 -0.495087,0.63654 -0.79939,1.41956 -0.864064,2.22337 -0.01788,0.22224 -0.01788,0.44593 0,0.66817 0.342591,-1.29384 1.164915,-2.45476 2.271791,-3.20723 0.413091,-0.28082 0.863832,-0.50619 1.336347,-0.66817 1.50743,0.47041 2.950427,1.14682 4.276313,2.00452 0.134857,0.0872 0.268509,0.17634 0.400904,0.26727 0.610695,-0.0679 1.247351,0.15547 1.681835,0.58996 0.434484,0.43448 0.657811,1.07113 0.589956,1.68183 -0.02034,0.18309 -0.06543,0.36342 -0.133635,0.53454 0.451641,-0.17933 0.847339,-0.49682 1.120281,-0.89887 0.272943,-0.40204 0.421998,-0.88698 0.421998,-1.37292 0,-0.48594 -0.149055,-0.97088 -0.421998,-1.37292 -0.272942,-0.40205 -0.66864,-0.71954 -1.120281,-0.89887 -0.421492,-0.16736 -0.890061,-0.21422 -1.336347,-0.13364 l -2.472243,-1.20271 c 2.844781,-0.5594 5.581589,-0.012 7.683999,1.46998 0.233308,0.16446 0.459307,0.33997 0.668173,0.53454 0.787632,0.7337 1.315304,1.74108 1.469983,2.80633 -0.421694,-2.89619 -2.114152,-5.58422 -4.543582,-7.21628 -0.280683,-0.18856 -0.576972,-0.3663 -0.90648,-0.4422 -0.164754,-0.038 -0.336594,-0.0495 -0.503566,-0.023 -0.166972,0.0265 -0.328964,0.0921 -0.460841,0.19791 -0.04924,0.0395 -0.09414,0.0844 -0.133635,0.13364 3.585951,-4.87426 4.892371,-11.35611 3.474504,-17.23889 -0.418469,-1.73624 -1.064934,-3.42565 -2.004521,-4.94448 -0.169024,-0.27322 -0.347341,-0.5407 -0.534539,-0.80181 l -7.216278,-0.40091 2.138156,5.21176"
       d="m 35.947751,269.80529 c 1.873319,2.06366 2.981478,4.78377 3.184257,7.5635 0.202779,2.77973 -0.5125,5.53585 -1.31337,8.20542 l -0.400904,1.33635 m 0,0 c -1.39568,0.25334 -2.657934,1.16216 -3.340869,2.40542 -0.221158,0.40261 -0.386282,0.84003 -0.668174,1.20272 -0.116277,0.1496 -0.251298,0.28462 -0.400904,0.4009 -0.763158,0.26055 -1.44718,0.74823 -1.942266,1.38477 -0.495086,0.63654 -0.79939,1.41956 -0.864064,2.22337 -0.01788,0.22224 -0.01788,0.44593 0,0.66817 0.342591,-1.29384 1.164915,-2.45476 2.271791,-3.20723 0.413092,-0.28082 0.863832,-0.50619 1.336347,-0.66817 1.507429,0.47041 2.950426,1.14682 4.276313,2.00452 0.134857,0.0872 0.268509,0.17634 0.400904,0.26727 0.610696,-0.0679 1.247351,0.15548 1.681835,0.58996 0.434483,0.43448 0.65781,1.07114 0.589956,1.68183 -0.02034,0.18309 -0.06542,0.36342 -0.133635,0.53454 0.451641,-0.17933 0.847338,-0.49682 1.120281,-0.89887 0.272942,-0.40205 0.421998,-0.88698 0.421998,-1.37292 0,-0.48594 -0.149056,-0.97087 -0.421998,-1.37292 -0.272942,-0.40205 -0.66864,-0.71954 -1.120281,-0.89887 -0.421492,-0.16736 -0.890061,-0.21422 -1.336347,-0.13364 l -2.472243,-1.20271 c 2.613309,-0.63023 5.487834,-0.0803 7.683999,1.46998 0.233196,0.16462 0.459252,0.34004 0.668173,0.53454 0.787875,0.7335 1.315613,1.741 1.469983,2.80633 -0.421627,-2.89621 -2.114106,-5.58427 -4.543582,-7.21628 -0.280686,-0.18855 -0.576976,-0.36628 -0.90648,-0.4422 -0.164753,-0.038 -0.336593,-0.0495 -0.503566,-0.023 -0.166973,0.0265 -0.328964,0.0921 -0.460841,0.19791 -0.04924,0.0395 -0.09414,0.0844 -0.133635,0.13364 3.585951,-4.87426 4.892371,-11.35611 3.474504,-17.23889 -0.418469,-1.73624 -1.064934,-3.42565 -2.004521,-4.94448 -0.169024,-0.27322 -0.347341,-0.5407 -0.534539,-0.80181 l -7.216278,-0.40091 2.138156,5.21176"
       inkscape:connector-curvature="0"
       sodipodi:nodetypes="csccsccsccccccccccscccccccccsccscccc" />
    <path
       id="path1989-9"
       style="fill:#ffffff;fill-opacity:1;stroke:#070000;stroke-width:0.76499999;stroke-linecap:butt;stroke-linejoin:miter;stroke-miterlimit:4;stroke-dasharray:none;stroke-opacity:1"
       inkscape:path-effect="#path-effect1991-8"
       inkscape:original-d="m 16.036173,269.87211 c 14.454562,1.33609 -3.391932,10.69876 -1.870887,15.76892 l 0.400904,1.33635 m 0,0 c 1.395681,0.25334 2.657934,1.16216 3.340869,2.40542 0.221158,0.40261 0.386282,0.84003 0.668174,1.20272 0.116277,0.1496 0.251298,0.28462 0.400904,0.4009 0.763158,0.26055 1.44718,0.74823 1.942266,1.38477 0.495087,0.63654 0.79939,1.41956 0.864064,2.22337 0.01788,0.22224 0.01788,0.44593 0,0.66817 -0.342591,-1.29384 -1.164915,-2.45476 -2.271791,-3.20723 -0.413091,-0.28082 -0.863832,-0.50619 -1.336347,-0.66817 -1.50743,0.47041 -2.950427,1.14682 -4.276313,2.00452 -0.134857,0.0872 -0.268509,0.17634 -0.400904,0.26727 -0.610695,-0.0679 -1.247351,0.15547 -1.681835,0.58996 -0.434484,0.43448 -0.657811,1.07113 -0.589956,1.68183 0.02034,0.18309 0.06543,0.36342 0.133635,0.53454 -0.451641,-0.17933 -0.847339,-0.49682 -1.120281,-0.89887 -0.2729427,-0.40204 -0.4219977,-0.88698 -0.4219977,-1.37292 0,-0.48594 0.149055,-0.97088 0.4219977,-1.37292 0.272942,-0.40205 0.66864,-0.71954 1.120281,-0.89887 0.421492,-0.16736 0.890061,-0.21422 1.336347,-0.13364 l 2.472243,-1.20271 c -2.844781,-0.5594 -5.5815887,-0.012 -7.6839987,1.46998 -0.233308,0.16446 -0.459307,0.33997 -0.668173,0.53454 -0.787632,0.7337 -1.315304,1.74108 -1.469983,2.80633 0.421694,-2.89619 2.114152,-5.58422 4.543582,-7.21628 0.2806827,-0.18856 0.5769717,-0.3663 0.9064797,-0.4422 0.164754,-0.038 0.336594,-0.0495 0.503566,-0.023 0.166972,0.0265 0.328964,0.0921 0.460841,0.19791 0.04924,0.0395 0.09414,0.0844 0.133635,0.13364 -3.5859507,-4.87426 -4.8923707,-11.35611 -3.4745037,-17.23889 0.418469,-1.73624 1.064934,-3.42565 2.0045207,-4.94448 0.169024,-0.27322 0.347341,-0.5407 0.534539,-0.80181 l 7.216278,-0.40091 -2.138156,5.21176"
       d="m 16.036173,269.87211 c -1.873319,2.06366 -2.981478,4.78377 -3.184257,7.5635 -0.202779,2.77973 0.5125,5.53585 1.31337,8.20542 l 0.400904,1.33635 m 0,0 c 1.39568,0.25334 2.657934,1.16216 3.340869,2.40542 0.221158,0.40261 0.386282,0.84003 0.668174,1.20272 0.116277,0.1496 0.251298,0.28462 0.400904,0.4009 0.763158,0.26055 1.44718,0.74823 1.942266,1.38477 0.495086,0.63654 0.79939,1.41956 0.864064,2.22337 0.01788,0.22224 0.01788,0.44593 0,0.66817 -0.342591,-1.29384 -1.164915,-2.45476 -2.271791,-3.20723 -0.413092,-0.28082 -0.863832,-0.50619 -1.336347,-0.66817 -1.507429,0.47041 -2.950426,1.14682 -4.276313,2.00452 -0.134857,0.0872 -0.268509,0.17634 -0.400904,0.26727 -0.610696,-0.0678 -1.247351,0.15548 -1.681835,0.58996 -0.434483,0.43448 -0.65781,1.07114 -0.589956,1.68183 0.02034,0.18309 0.06543,0.36342 0.133635,0.53454 -0.451641,-0.17933 -0.847338,-0.49682 -1.120281,-0.89887 -0.2729422,-0.40205 -0.4219977,-0.88698 -0.4219977,-1.37292 0,-0.48594 0.1490557,-0.97087 0.4219977,-1.37292 0.272942,-0.40205 0.66864,-0.71954 1.120281,-0.89887 0.421492,-0.16736 0.890061,-0.21422 1.336347,-0.13364 l 2.472243,-1.20271 c -2.613309,-0.63023 -5.4878335,-0.0803 -7.6839987,1.46998 -0.2331961,0.16462 -0.4592521,0.34004 -0.668173,0.53454 -0.7878748,0.7335 -1.3156132,1.741 -1.469983,2.80633 0.4216272,-2.89621 2.1141062,-5.58427 4.543582,-7.21628 0.2806867,-0.18855 0.5769757,-0.36628 0.9064797,-0.4422 0.164753,-0.038 0.336593,-0.0495 0.503566,-0.023 0.166973,0.0265 0.328964,0.0921 0.460841,0.19791 0.04924,0.0395 0.09414,0.0844 0.133635,0.13364 -3.5859506,-4.87426 -4.8923706,-11.35611 -3.4745037,-17.23889 0.4184692,-1.73624 1.0649336,-3.42565 2.0045207,-4.94448 0.169024,-0.27322 0.347341,-0.5407 0.534539,-0.80181 l 7.216278,-0.40091 -2.138156,5.21176"
       inkscape:connector-curvature="0"
       sodipodi:nodetypes="csccsccsccccccccccscccccccccsccscccc" />
  </g>
</svg>
