<?xml version="1.0" encoding="UTF-8" standalone="no"?>
<!-- Created with Inkscape (http://www.inkscape.org/) -->

<svg
   xmlns:dc="http://purl.org/dc/elements/1.1/"
   xmlns:cc="http://creativecommons.org/ns#"
   xmlns:rdf="http://www.w3.org/1999/02/22-rdf-syntax-ns#"
   xmlns:svg="http://www.w3.org/2000/svg"
   xmlns="http://www.w3.org/2000/svg"
   xmlns:sodipodi="http://sodipodi.sourceforge.net/DTD/sodipodi-0.dtd"
   xmlns:inkscape="http://www.inkscape.org/namespaces/inkscape"
   width="200"
   height="100"
   viewBox="0 0 52.916666 26.458334"
   version="1.1"
   id="svg833"
   sodipodi:docname="RaptorLegs.svg"
   inkscape:export-filename="C:\Users\nubbe\OneDrive\Documents\dnawesome\DNAwesome\Assets\Parts\Legs\RaptorLegs.png"
   inkscape:export-xdpi="300"
   inkscape:export-ydpi="300"
   inkscape:version="0.92.1 r15371">
  <defs
     id="defs827">
    <inkscape:path-effect
       effect="spiro"
       id="path-effect1991"
       is_visible="true" />
    <inkscape:path-effect
       effect="spiro"
       id="path-effect1419"
       is_visible="true" />
    <inkscape:path-effect
       effect="spiro"
       id="path-effect1398"
       is_visible="true" />
    <inkscape:path-effect
       effect="spiro"
       id="path-effect1991-9"
       is_visible="true" />
    <inkscape:path-effect
       effect="spiro"
       id="path-effect1991-8"
       is_visible="true" />
  </defs>
  <sodipodi:namedview
     id="base"
     pagecolor="#ffffff"
     bordercolor="#666666"
     borderopacity="1.0"
     inkscape:pageopacity="0.0"
     inkscape:pageshadow="2"
     inkscape:zoom="3.959798"
     inkscape:cx="74.321944"
     inkscape:cy="60.208089"
     inkscape:document-units="mm"
     inkscape:current-layer="layer1"
     showgrid="false"
     units="px"
     inkscape:window-width="1920"
     inkscape:window-height="1051"
     inkscape:window-x="-9"
     inkscape:window-y="-9"
     inkscape:window-maximized="1" />
  <metadata
     id="metadata830">
    <rdf:RDF>
      <cc:Work
         rdf:about="">
        <dc:format>image/svg+xml</dc:format>
        <dc:type
           rdf:resource="http://purl.org/dc/dcmitype/StillImage" />
        <dc:title></dc:title>
      </cc:Work>
    </rdf:RDF>
  </metadata>
  <g
     inkscape:label="Layer 1"
     inkscape:groupmode="layer"
     id="layer1"
     transform="translate(0,-270.54165)">
    <g
       id="g1415" />
    <path
       style="fill:#000000;stroke:#000000;stroke-width:0.26458332px;stroke-linecap:butt;stroke-linejoin:miter;stroke-opacity:1;fill-opacity:1"
       inkscape:path-effect="#path-effect1419"
       inkscape:original-d="m 12.027129,291.78823 c -0.22299,2.6e-4 0.445714,-2.6e-4 0.668174,0"
       d="m 12.027129,291.78823 h 0.668174"
       id="path1969" />
    <g
       id="g1973"
       style="stroke-width:0.4;stroke-miterlimit:4;stroke-dasharray:none;fill:#ffffff;fill-opacity:1;stroke:#000000;stroke-opacity:1" />
    <path
       id="path1989"
       style="fill:#ffffff;fill-opacity:1;stroke:#070000;stroke-width:0.71116823;stroke-linecap:butt;stroke-linejoin:miter;stroke-miterlimit:4;stroke-dasharray:none;stroke-opacity:1"
       inkscape:path-effect="#path-effect1991"
       inkscape:original-d="m 34.454363,269.87211 c -12.491851,1.33609 2.931358,10.69876 1.616848,15.76892 l -0.346467,1.33635 m 0,0 c -1.206168,0.25334 -2.297026,1.16216 -2.887229,2.40542 -0.191128,0.40261 -0.333831,0.84003 -0.577446,1.20272 -0.100489,0.1496 -0.217176,0.28462 -0.346467,0.4009 -0.659533,0.26055 -1.250675,0.74823 -1.678536,1.38477 -0.427862,0.63654 -0.690845,1.41956 -0.746737,2.22337 -0.01545,0.22224 -0.01545,0.44593 0,0.66817 0.296072,-1.29384 1.006737,-2.45476 1.963316,-3.20723 0.356999,-0.28082 0.746537,-0.50619 1.154891,-0.66817 1.302744,0.47041 2.549804,1.14682 3.695654,2.00452 0.116546,0.0872 0.23205,0.17634 0.346468,0.26727 0.527771,-0.0679 1.077979,0.15547 1.453467,0.58996 0.375487,0.43448 0.56849,1.07113 0.509849,1.68183 -0.01758,0.18309 -0.05655,0.36342 -0.11549,0.53454 0.390315,-0.17933 0.732283,-0.49682 0.968164,-0.89887 0.235881,-0.40204 0.364697,-0.88698 0.364697,-1.37292 0,-0.48594 -0.128816,-0.97088 -0.364697,-1.37292 -0.235881,-0.40205 -0.577849,-0.71954 -0.968164,-0.89887 -0.36426,-0.16736 -0.769204,-0.21422 -1.154891,-0.13364 l -2.13655,-1.20271 c 2.458503,-0.5594 4.823694,-0.012 6.640628,1.46998 0.201628,0.16446 0.39694,0.33997 0.577445,0.53454 0.680684,0.7337 1.136706,1.74108 1.270382,2.80633 -0.364435,-2.89619 -1.827082,-5.58422 -3.926632,-7.21628 -0.242571,-0.18856 -0.498628,-0.3663 -0.783394,-0.4422 -0.142383,-0.038 -0.29089,-0.0495 -0.435189,-0.023 -0.1443,0.0265 -0.284296,0.0921 -0.398266,0.19791 -0.04255,0.0395 -0.08136,0.0844 -0.11549,0.13364 3.099033,-4.87426 4.228061,-11.35611 3.002719,-17.23889 -0.361647,-1.73624 -0.920332,-3.42565 -1.732337,-4.94448 -0.146073,-0.27322 -0.300177,-0.5407 -0.461957,-0.80181 l -6.236416,-0.40091 1.847827,5.21176"
       d="m 34.454363,269.87211 c 1.638062,2.20472 2.577249,4.90442 2.748736,7.6457 0.171488,2.74129 -0.442574,5.46448 -1.131888,8.12322 l -0.346467,1.33635 m 0,0 c -1.246345,0.33973 -2.328028,1.24091 -2.887229,2.40542 -0.19279,0.40148 -0.327705,0.83396 -0.577446,1.20272 -0.09927,0.14658 -0.215821,0.28144 -0.346467,0.4009 -0.673463,0.29388 -1.262021,0.77943 -1.678536,1.38477 -0.448522,0.65185 -0.694091,1.43387 -0.746737,2.22337 -0.01483,0.22239 -0.01483,0.44578 0,0.66817 0.230289,-1.2615 0.944596,-2.42837 1.963316,-3.20723 0.354289,-0.27087 0.743478,-0.49604 1.154891,-0.66817 1.320143,0.48482 2.569327,1.16237 3.695654,2.00452 0.116821,0.0874 0.232328,0.17645 0.346468,0.26727 0.539485,-0.0309 1.088174,0.19176 1.453467,0.58996 0.408153,0.44492 0.573665,1.08144 0.509849,1.68183 -0.0193,0.18162 -0.05809,0.36115 -0.11549,0.53454 0.398282,-0.20116 0.738033,-0.5166 0.968164,-0.89887 0.247269,-0.41074 0.366239,-0.89349 0.364697,-1.37292 -0.0015,-0.47901 -0.122876,-0.95942 -0.364697,-1.37292 -0.225872,-0.38622 -0.560605,-0.71425 -0.968164,-0.89887 -0.358727,-0.1625 -0.768534,-0.20992 -1.154891,-0.13364 l -2.13655,-1.20271 c 2.279088,-0.57962 4.819085,-0.0174 6.640628,1.46998 0.203321,0.16602 0.39816,0.34282 0.577445,0.53454 0.713979,0.76352 1.167806,1.76604 1.270382,2.80633 -0.251099,-2.80514 -1.707636,-5.48194 -3.926632,-7.21628 -0.237949,-0.18598 -0.491403,-0.36507 -0.783394,-0.4422 -0.141598,-0.0374 -0.291181,-0.0496 -0.435189,-0.023 -0.147701,0.0273 -0.287817,0.0961 -0.398266,0.19791 -0.04339,0.04 -0.08221,0.0849 -0.11549,0.13364 3.118727,-5.0944 4.215321,-11.39005 3.002719,-17.23889 -0.355754,-1.71594 -0.905124,-3.39958 -1.732337,-4.94448 -0.145626,-0.27197 -0.299711,-0.53941 -0.461957,-0.80181 l -6.236416,-0.40091 1.847827,5.21176"
       inkscape:connector-curvature="0"
       sodipodi:nodetypes="csccsccsccccccccccscccccccccsccscccc" />
    <path
       id="path1989-9"
       style="fill:#ffffff;fill-opacity:1;stroke:#070000;stroke-width:0.71116823;stroke-linecap:butt;stroke-linejoin:miter;stroke-miterlimit:4;stroke-dasharray:none;stroke-opacity:1"
       inkscape:path-effect="#path-effect1991-8"
       inkscape:original-d="m 19.363145,269.93893 c 12.49185,1.33609 -2.931359,10.69876 -1.616849,15.76892 l 0.346468,1.33635 m 0,0 c 1.206168,0.25334 2.297026,1.16216 2.887229,2.40542 0.191128,0.40261 0.333831,0.84003 0.577446,1.20272 0.100488,0.1496 0.217175,0.28462 0.346467,0.4009 0.659533,0.26055 1.250675,0.74823 1.678536,1.38477 0.427861,0.63654 0.690845,1.41956 0.746737,2.22337 0.01545,0.22224 0.01545,0.44593 0,0.66817 -0.296072,-1.29384 -1.006737,-2.45476 -1.963316,-3.20723 -0.357,-0.28082 -0.746537,-0.50619 -1.154891,-0.66817 -1.302744,0.47041 -2.549804,1.14682 -3.695655,2.00452 -0.116545,0.0872 -0.232049,0.17634 -0.346467,0.26727 -0.527772,-0.0679 -1.077979,0.15547 -1.453467,0.58996 -0.375488,0.43448 -0.56849,1.07113 -0.509849,1.68183 0.01758,0.18309 0.05655,0.36342 0.11549,0.53454 -0.390315,-0.17933 -0.732284,-0.49682 -0.968164,-0.89887 -0.235882,-0.40204 -0.364697,-0.88698 -0.364697,-1.37292 0,-0.48594 0.128815,-0.97088 0.364697,-1.37292 0.23588,-0.40205 0.577849,-0.71954 0.968164,-0.89887 0.364259,-0.16736 0.769204,-0.21422 1.154891,-0.13364 l 2.136549,-1.20271 c -2.458502,-0.5594 -4.823693,-0.012 -6.640628,1.46998 -0.201628,0.16446 -0.39694,0.33997 -0.577445,0.53454 -0.680684,0.7337 -1.136706,1.74108 -1.270382,2.80633 0.364434,-2.89619 1.827083,-5.58422 3.926633,-7.21628 0.242571,-0.18856 0.498628,-0.3663 0.783394,-0.4422 0.142383,-0.038 0.290889,-0.0495 0.435189,-0.023 0.1443,0.0265 0.284296,0.0921 0.398266,0.19791 0.04255,0.0395 0.08136,0.0844 0.115489,0.13364 -3.099033,-4.87426 -4.228061,-11.35611 -3.002719,-17.23889 0.361647,-1.73624 0.920333,-3.42565 1.732338,-4.94448 0.146073,-0.27322 0.300177,-0.5407 0.461956,-0.80181 l 6.236417,-0.40091 -1.847827,5.21176"
       d="m 19.363145,269.93893 c -1.638065,2.20472 -2.577254,4.90442 -2.748741,7.6457 -0.171488,2.74129 0.442576,5.46448 1.131892,8.12322 l 0.346468,1.33635 m 0,0 c 1.246345,0.33973 2.328028,1.24091 2.887229,2.40542 0.19279,0.40148 0.327705,0.83396 0.577446,1.20272 0.09927,0.14658 0.215821,0.28144 0.346467,0.4009 0.673463,0.29388 1.262021,0.77943 1.678536,1.38477 0.448522,0.65185 0.694091,1.43387 0.746737,2.22337 0.01483,0.22239 0.01483,0.44578 0,0.66817 -0.230289,-1.2615 -0.944596,-2.42837 -1.963316,-3.20723 -0.354289,-0.27087 -0.743478,-0.49604 -1.154891,-0.66817 -1.320144,0.48482 -2.569328,1.16237 -3.695655,2.00452 -0.11682,0.0874 -0.232327,0.17645 -0.346467,0.26727 -0.539485,-0.0309 -1.088174,0.19176 -1.453467,0.58996 -0.408153,0.44492 -0.573665,1.08144 -0.509849,1.68183 0.0193,0.18162 0.05809,0.36115 0.11549,0.53454 -0.398282,-0.20116 -0.738033,-0.5166 -0.968164,-0.89887 -0.247269,-0.41074 -0.366239,-0.89349 -0.364697,-1.37292 0.0015,-0.47901 0.122876,-0.95942 0.364697,-1.37292 0.225872,-0.38622 0.560605,-0.71425 0.968164,-0.89887 0.358727,-0.1625 0.768534,-0.20992 1.154891,-0.13364 l 2.136549,-1.20271 c -2.279088,-0.57962 -4.819085,-0.0174 -6.640628,1.46998 -0.203321,0.16602 -0.39816,0.34282 -0.577445,0.53454 -0.713979,0.76352 -1.167806,1.76604 -1.270382,2.80633 0.2511,-2.80514 1.707637,-5.48194 3.926633,-7.21628 0.237949,-0.18598 0.491403,-0.36507 0.783394,-0.4422 0.141598,-0.0374 0.291181,-0.0496 0.435189,-0.023 0.147701,0.0273 0.287817,0.0961 0.398266,0.19791 0.04338,0.04 0.08221,0.0849 0.115489,0.13364 -3.11873,-5.0944 -4.215324,-11.39005 -3.002719,-17.23889 0.355755,-1.71594 0.905126,-3.39958 1.732338,-4.94448 0.145626,-0.27197 0.299711,-0.53941 0.461956,-0.80181 l 6.236417,-0.40091 -1.847827,5.21176"
       inkscape:connector-curvature="0"
       sodipodi:nodetypes="csccsccsccccccccccscccccccccsccscccc" />
  </g>
</svg>
